<?xml version="1.0" encoding="utf-8"?>
<!-- Generator: Adobe Illustrator 25.4.1, SVG Export Plug-In . SVG Version: 6.00 Build 0)  -->
<svg version="1.1" id="Layer_1" xmlns="http://www.w3.org/2000/svg" xmlns:xlink="http://www.w3.org/1999/xlink" x="0px" y="0px"
	 viewBox="0 0 88.41 165" style="enable-background:new 0 0 88.41 165;" xml:space="preserve">
<style type="text/css">
	.st0{fill:#E7F7E4;}
	.st1{fill:#76483B;}
	.st2{font-family:'Poppins-Bold';}
	.st3{font-size:33.0582px;}
	.st4{fill:url(#SVGID_1_);}
	.st5{fill:url(#SVGID_00000163060890111256807180000008769541014903709358_);}
	.st6{fill:url(#SVGID_00000092427428964000681180000006441966610960618389_);}
	.st7{opacity:0.3;fill:url(#SVGID_00000124862581535507240970000009185297529337076411_);}
	.st8{fill:url(#SVGID_00000057114547959620560420000003040197854609817256_);}
	.st9{opacity:0.3;fill:url(#SVGID_00000018955619103405252930000000823273585994507657_);}
	.st10{fill:url(#SVGID_00000105406238119752587460000010062454705735604400_);}
	.st11{opacity:0.3;fill:url(#SVGID_00000106868891878588718640000004038983026727775629_);}
	.st12{fill:#1A1A1A;}
	.st13{opacity:0.1;fill:#FFFFFF;}
	.st14{opacity:0.2;fill:#FFFFFF;}
	.st15{fill:url(#SVGID_00000020398224566286335790000003175837943718517150_);}
	.st16{opacity:0.3;fill:url(#SVGID_00000180337351477872937040000009642926593133696131_);}
	.st17{fill:#333333;}
	.st18{fill:url(#SVGID_00000163067912986864251830000013099429201443329195_);}
	.st19{opacity:0.3;fill:url(#SVGID_00000155825208428696914080000018040745414630376104_);}
	.st20{fill:url(#SVGID_00000158739579934213328650000003151774538451655059_);}
	.st21{fill:url(#SVGID_00000095332141849019786300000002711569500758899634_);}
	.st22{fill:url(#SVGID_00000010302995683871955730000000419190830123567802_);}
	.st23{fill:url(#SVGID_00000086659542872874869860000013711660628498716808_);}
	.st24{fill:url(#SVGID_00000135686260057324264900000016259654664494568577_);}
	.st25{fill:url(#SVGID_00000075123255687191193140000006812752654503965348_);}
	.st26{fill:url(#SVGID_00000178883808492050379680000015135408609374989707_);}
	.st27{fill:url(#SVGID_00000015352522632405015660000005532410952584370616_);}
	.st28{fill:url(#SVGID_00000141422734365756862010000009977277760090686122_);}
</style>
<rect class="st0" width="88.33" height="165"/>
<g>
	<text transform="matrix(1 0 0 1 20.6821 60.6885)" class="st1 st2 st3">08</text>
</g>
<g>
	<g>
		
			<linearGradient id="SVGID_1_" gradientUnits="userSpaceOnUse" x1="68.8375" y1="95.6749" x2="70.0142" y2="95.6749" gradientTransform="matrix(0.9825 -0.1862 0.1862 0.9825 -49.3583 20.2002)">
			<stop  offset="0" style="stop-color:#FC9DB8"/>
			<stop  offset="1" style="stop-color:#EB5D6B"/>
		</linearGradient>
		<path class="st4" d="M42.55,132.34L42.55,132.34c-0.32,0.06-0.63-0.15-0.69-0.47L30.31,70.9c-0.06-0.32,0.15-0.63,0.47-0.69l0,0
			c0.32-0.06,0.63,0.15,0.69,0.47l11.56,60.97C43.08,131.97,42.88,132.28,42.55,132.34z"/>
		
			<linearGradient id="SVGID_00000103265254136118860600000010456115218080211084_" gradientUnits="userSpaceOnUse" x1="69.6992" y1="85.934" x2="106.5906" y2="85.934" gradientTransform="matrix(0.9825 -0.1862 0.1862 0.9825 -49.3583 20.2002)">
			<stop  offset="0" style="stop-color:#FFB20A"/>
			<stop  offset="1" style="stop-color:#FAD604"/>
		</linearGradient>
		<path style="fill:url(#SVGID_00000103265254136118860600000010456115218080211084_);" d="M31.62,73.16c0,0,14.43-4.25,29.16,6.99
			c14.73,11.24,13.74,23.24,13.74,23.24s-9.32-8.36-21.52,3.84C44.44,92.02,31.62,73.16,31.62,73.16z"/>
		
			<linearGradient id="SVGID_00000052092146552040481200000004381658080060832153_" gradientUnits="userSpaceOnUse" x1="93.1917" y1="105.628" x2="85.9828" y2="73.0312" gradientTransform="matrix(0.9825 -0.1862 0.1862 0.9825 -49.3583 20.2002)">
			<stop  offset="0" style="stop-color:#FFB20A"/>
			<stop  offset="1" style="stop-color:#FAD604"/>
		</linearGradient>
		<path style="fill:url(#SVGID_00000052092146552040481200000004381658080060832153_);" d="M31.62,73.16c0,0,14.43-4.25,29.16,6.99
			c14.73,11.24,13.74,23.24,13.74,23.24s-9.32-8.36-21.52,3.84C44.44,92.02,31.62,73.16,31.62,73.16z"/>
		
			<linearGradient id="SVGID_00000059304903233367724740000009782626442343352730_" gradientUnits="userSpaceOnUse" x1="69.6994" y1="93.2532" x2="106.5907" y2="93.2532" gradientTransform="matrix(0.9825 -0.1862 0.1862 0.9825 -49.3583 20.2002)">
			<stop  offset="0" style="stop-color:#FFB20A"/>
			<stop  offset="1" style="stop-color:#FAD604"/>
		</linearGradient>
		<path style="opacity:0.3;fill:url(#SVGID_00000059304903233367724740000009782626442343352730_);" d="M63.1,82.05
			c1.02,1.91,1.62,4.1,1.68,6.15c0.08,2.61-1,5.02-2.71,6.96c-3.08,3.5-8.26,5.98-13.01,5.31c1.37,2.29,2.69,4.57,3.93,6.77
			c12.2-12.2,21.52-3.84,21.52-3.84S75.4,92.7,63.1,82.05z"/>
		
			<linearGradient id="SVGID_00000142139433359273769920000010352288995678173100_" gradientUnits="userSpaceOnUse" x1="500.0246" y1="86.4395" x2="536.9133" y2="86.4395" gradientTransform="matrix(-0.9825 0.1862 0.1862 0.9825 509.9585 -86.4127)">
			<stop  offset="0" style="stop-color:#FFB20A"/>
			<stop  offset="1" style="stop-color:#FAD604"/>
		</linearGradient>
		<path style="fill:url(#SVGID_00000142139433359273769920000010352288995678173100_);" d="M31.27,73.13c0,0-14.98,1.32-24.58,17.18
			c-9.6,15.86-4.28,26.65-4.28,26.65s5.61-11.19,21.43-4.3C26.24,95.37,31.27,73.13,31.27,73.13z"/>
		
			<linearGradient id="SVGID_00000086656060507502489510000008407501122563494319_" gradientUnits="userSpaceOnUse" x1="500.0235" y1="93.9817" x2="536.9131" y2="93.9817" gradientTransform="matrix(-0.9825 0.1862 0.1862 0.9825 509.9585 -86.4127)">
			<stop  offset="0" style="stop-color:#FFB20A"/>
			<stop  offset="1" style="stop-color:#FAD604"/>
		</linearGradient>
		<path style="opacity:0.3;fill:url(#SVGID_00000086656060507502489510000008407501122563494319_);" d="M1.67,102.45
			c-1.98,8.97,0.75,14.51,0.75,14.51s5.61-11.19,21.43-4.3c1.06-7.68,2.64-16.34,4.08-23.59C23.87,98.77,12.99,107.14,1.67,102.45z"
			/>
		
			<linearGradient id="SVGID_00000147914641010704093440000011860459459298195088_" gradientUnits="userSpaceOnUse" x1="68.9083" y1="79.9954" x2="69.5744" y2="99.7417" gradientTransform="matrix(0.9825 -0.1862 0.1862 0.9825 -49.3583 20.2002)">
			<stop  offset="0" style="stop-color:#FC9DB8"/>
			<stop  offset="1" style="stop-color:#EB5D6B"/>
		</linearGradient>
		<path style="fill:url(#SVGID_00000147914641010704093440000011860459459298195088_);" d="M23.87,112.67c0,0,7.05-5.72,14.62-6.6
			c7.57-0.88,14.5,1.16,14.5,1.16s-0.95-22.71-21.37-34.07C31.62,73.16,17.12,85.88,23.87,112.67z"/>
		
			<linearGradient id="SVGID_00000179624498540923088630000002778590136069905824_" gradientUnits="userSpaceOnUse" x1="54.6187" y1="92.681" x2="84.5895" y2="92.681" gradientTransform="matrix(0.9825 -0.1862 0.1862 0.9825 -49.3583 20.2002)">
			<stop  offset="0" style="stop-color:#FC9DB8"/>
			<stop  offset="1" style="stop-color:#EB5D6B"/>
		</linearGradient>
		<path style="opacity:0.3;fill:url(#SVGID_00000179624498540923088630000002778590136069905824_);" d="M49.01,92.22
			c-0.28,0.57-0.59,1.12-0.96,1.64c-0.75,1.03-1.75,1.85-2.8,2.55c-2.07,1.36-4.48,2.25-6.93,2.55c-2.56,0.32-4.89-0.64-7.18-1.68
			c-2.14-0.97-4.41-2.31-5.87-4.2c-1.02-1.3-1.61-2.83-1.96-4.41c-1.51,6.13-1.91,14.1,0.58,24.01c0,0,7.05-5.72,14.62-6.6
			c7.57-0.88,14.5,1.16,14.5,1.16S52.7,100.32,49.01,92.22z"/>
		<g>
			<g>
				<path class="st12" d="M39.09,140.56c-1.58,0.3-3.18-0.03-4.52-0.93c-1.39-0.93-2.3-2.43-2.61-4.08l-0.39-2.09
					c-0.13-0.68,0.32-1.34,1-1.46l0,0c0.68-0.13,1.34,0.32,1.46,1l0.4,2.14c0.18,0.96,0.7,1.84,1.51,2.39
					c0.83,0.57,1.83,0.76,2.81,0.54c1.88-0.42,3.08-2.23,2.73-4.12l-1.46-8.1l2.47-0.45l1.46,8.1c0.58,3.22-1.46,6.3-4.65,7.02
					C39.23,140.54,39.16,140.55,39.09,140.56z"/>
			</g>
		</g>
		<path class="st13" d="M41.83,86.02c0.91,4.78-1.34,9.23-5.02,9.92c-3.68,0.7-7.39-2.62-8.3-7.4c-0.91-4.78,1.34-9.23,5.02-9.92
			C37.21,77.92,40.92,81.24,41.83,86.02z"/>
		<path class="st14" d="M56.5,79.09c3.79,3.06,5.4,7.34,3.61,9.56c-1.79,2.22-6.32,1.53-10.1-1.53c-3.79-3.06-5.4-7.34-3.61-9.56
			C48.2,75.34,52.72,76.02,56.5,79.09z"/>
		<path class="st14" d="M9.12,88.55c-2.4,4.23-2.34,8.81,0.14,10.22c2.48,1.41,6.44-0.88,8.84-5.12c2.4-4.23,2.34-8.81-0.14-10.22
			C15.49,82.02,11.53,84.31,9.12,88.55z"/>
	</g>
	<g>
		
			<linearGradient id="SVGID_00000041283715404080348070000006604450436900288424_" gradientUnits="userSpaceOnUse" x1="92.5762" y1="139.5454" x2="91.8993" y2="118.3677" gradientTransform="matrix(0.9881 -0.1541 0.1541 0.9881 -41.63 18.8423)">
			<stop  offset="0" style="stop-color:#FFB20A"/>
			<stop  offset="1" style="stop-color:#FAD604"/>
		</linearGradient>
		<path style="fill:url(#SVGID_00000041283715404080348070000006604450436900288424_);" d="M83.95,143.67
			c0.03,1.32-8.19,3.26-11.16,3.58c-6.71,0.72-13.15-0.01-13.15-0.01s-0.43-2.33-0.66-3.8c-0.66-3.07-0.16-6.19-0.5-9.31
			c-0.34-3.12-2.63-13.86-2.63-13.86s7.04-2.94,12.04-1.51c-0.13,3.98,0.39,11.82,1.69,15.18c1.3,3.35,2.85,5.3,5.9,5.29
			c3.05-0.01,6.43-0.57,7.38,0.43C84.22,141.14,83.95,143.67,83.95,143.67z"/>
		
			<linearGradient id="SVGID_00000101824210107308399940000014467113741076819084_" gradientUnits="userSpaceOnUse" x1="80.1721" y1="136.2361" x2="105.0251" y2="136.2361" gradientTransform="matrix(0.9881 -0.1541 0.1541 0.9881 -41.63 18.8423)">
			<stop  offset="0" style="stop-color:#FFB20A"/>
			<stop  offset="1" style="stop-color:#FAD604"/>
		</linearGradient>
		<path style="opacity:0.3;fill:url(#SVGID_00000101824210107308399940000014467113741076819084_);" d="M80.05,142.32
			c-2.96,0.5-5.99,0.59-8.98,0.29c-2.44-0.25-4.72-0.73-6.78-2.12c-2.71-1.82-4.81-4.63-6.02-7.72c0.09,0.58,0.16,1.06,0.2,1.38
			c0.34,3.12-0.15,6.24,0.5,9.31c0.23,1.46,0.66,3.8,0.66,3.8s6.45,0.73,13.15,0.01c2.98-0.32,11.19-2.26,11.16-3.58
			c0,0,0.11-1.07-0.18-2.22C82.55,141.82,81.31,142.11,80.05,142.32z"/>
		<path class="st17" d="M71.88,145.77c-2.06,0.23-4.12,0.22-6.19,0.15c-2.14-0.07-4.27-0.16-6.39-0.53c0.18,1,0.36,2.15,0.36,2.15
			s6.42,0.49,13.13-0.24c2.98-0.32,11.22-2.19,11.19-3.51c0,0-0.01-0.42-0.02-0.87C79.69,144.85,74.02,145.53,71.88,145.77z"/>
		<path class="st14" d="M66.88,135.02L66.88,135.02c-0.6,0.09-1.16-0.32-1.26-0.92l-2-12.84c-0.09-0.6,0.32-1.16,0.92-1.26l0,0
			c0.6-0.09,1.16,0.32,1.26,0.92l2,12.84C67.89,134.36,67.48,134.93,66.88,135.02z"/>
	</g>
	<g>
		
			<linearGradient id="SVGID_00000160896136681935734810000005916302550832116413_" gradientUnits="userSpaceOnUse" x1="82.3015" y1="151.7961" x2="81.6246" y2="130.6183" gradientTransform="matrix(0.9881 -0.1541 0.1541 0.9881 -41.63 18.8423)">
			<stop  offset="0" style="stop-color:#FFB20A"/>
			<stop  offset="1" style="stop-color:#FAD604"/>
		</linearGradient>
		<path style="fill:url(#SVGID_00000160896136681935734810000005916302550832116413_);" d="M75.68,157.36
			c0.03,1.32-8.19,3.26-11.16,3.58c-6.71,0.72-13.15-0.01-13.15-0.01s-0.43-2.33-0.66-3.8c-0.66-3.07-0.16-6.19-0.5-9.31
			c-0.34-3.12-2.63-13.86-2.63-13.86s7.04-2.94,12.04-1.51c-0.13,3.98,0.39,11.82,1.69,15.18c1.3,3.35,2.85,5.3,5.9,5.29
			c3.05-0.01,6.43-0.57,7.38,0.43C75.95,154.83,75.68,157.36,75.68,157.36z"/>
		
			<linearGradient id="SVGID_00000176762233488645722860000004748297581463704229_" gradientUnits="userSpaceOnUse" x1="69.8975" y1="148.4868" x2="94.7504" y2="148.4868" gradientTransform="matrix(0.9881 -0.1541 0.1541 0.9881 -41.63 18.8423)">
			<stop  offset="0" style="stop-color:#FFB20A"/>
			<stop  offset="1" style="stop-color:#FAD604"/>
		</linearGradient>
		<path style="opacity:0.3;fill:url(#SVGID_00000176762233488645722860000004748297581463704229_);" d="M71.79,156.01
			c-2.96,0.5-5.99,0.59-8.98,0.29c-2.44-0.25-4.72-0.73-6.78-2.12c-2.71-1.82-4.81-4.63-6.02-7.72c0.09,0.58,0.16,1.06,0.2,1.38
			c0.34,3.12-0.15,6.24,0.5,9.31c0.23,1.46,0.66,3.8,0.66,3.8s6.45,0.73,13.15,0.01c2.98-0.32,11.19-2.26,11.16-3.58
			c0,0,0.11-1.07-0.18-2.22C74.28,155.51,73.04,155.8,71.79,156.01z"/>
		<path class="st17" d="M63.61,159.46c-2.06,0.23-4.12,0.22-6.19,0.15c-2.14-0.07-4.27-0.16-6.39-0.53c0.18,1,0.36,2.15,0.36,2.15
			s6.42,0.49,13.13-0.24c2.98-0.32,11.22-2.19,11.19-3.51c0,0-0.01-0.42-0.02-0.87C71.43,158.54,65.75,159.22,63.61,159.46z"/>
		<path class="st14" d="M58.61,148.71L58.61,148.71c-0.6,0.09-1.16-0.32-1.26-0.92l-2-12.84c-0.09-0.6,0.32-1.16,0.92-1.26l0,0
			c0.6-0.09,1.16,0.32,1.26,0.92l2,12.84C59.62,148.05,59.21,148.61,58.61,148.71z"/>
	</g>
	<g>
		
			<linearGradient id="SVGID_00000068654703779807274820000017750379053006646446_" gradientUnits="userSpaceOnUse" x1="76.1092" y1="96.772" x2="79.9656" y2="96.772">
			<stop  offset="0" style="stop-color:#0DB4BE"/>
			<stop  offset="1" style="stop-color:#10B09A"/>
		</linearGradient>
		<path style="fill:url(#SVGID_00000068654703779807274820000017750379053006646446_);" d="M79.4,96.18
			c0.88,1.21,0.63,2.09-0.09,2.62c-0.72,0.52-1.64,0.49-2.52-0.72c-0.88-1.21-0.66-3.65-0.66-3.65S78.52,94.97,79.4,96.18z"/>
		
			<linearGradient id="SVGID_00000021806989022244860570000007407397770397286294_" gradientUnits="userSpaceOnUse" x1="75.3774" y1="85.5805" x2="79.2338" y2="85.5805">
			<stop  offset="0" style="stop-color:#0DB4BE"/>
			<stop  offset="1" style="stop-color:#10B09A"/>
		</linearGradient>
		<path style="fill:url(#SVGID_00000021806989022244860570000007407397770397286294_);" d="M78.67,84.99
			c0.88,1.21,0.63,2.09-0.09,2.62c-0.72,0.52-1.64,0.49-2.52-0.72c-0.88-1.21-0.66-3.65-0.66-3.65S77.79,83.78,78.67,84.99z"/>
		
			<linearGradient id="SVGID_00000159441980677255660440000018205138831007427213_" gradientUnits="userSpaceOnUse" x1="83.1685" y1="91.908" x2="87.0249" y2="91.908">
			<stop  offset="0" style="stop-color:#0DB4BE"/>
			<stop  offset="1" style="stop-color:#10B09A"/>
		</linearGradient>
		<path style="fill:url(#SVGID_00000159441980677255660440000018205138831007427213_);" d="M86.46,91.31
			c0.88,1.21,0.63,2.09-0.09,2.62c-0.72,0.52-1.64,0.49-2.52-0.72c-0.88-1.21-0.66-3.65-0.66-3.65S85.58,90.11,86.46,91.31z"/>
	</g>
	<g>
		
			<linearGradient id="SVGID_00000118355178940302886350000003541764881303367587_" gradientUnits="userSpaceOnUse" x1="10.8536" y1="130.0025" x2="14.71" y2="130.0025">
			<stop  offset="0" style="stop-color:#0DB4BE"/>
			<stop  offset="1" style="stop-color:#10B09A"/>
		</linearGradient>
		<path style="fill:url(#SVGID_00000118355178940302886350000003541764881303367587_);" d="M14.15,129.41
			c0.88,1.21,0.63,2.09-0.09,2.62c-0.72,0.52-1.64,0.49-2.52-0.72c-0.88-1.21-0.66-3.65-0.66-3.65S13.27,128.2,14.15,129.41z"/>
		
			<linearGradient id="SVGID_00000106109802665455326660000004240185180385284495_" gradientUnits="userSpaceOnUse" x1="10.1218" y1="118.8109" x2="13.9782" y2="118.8109">
			<stop  offset="0" style="stop-color:#0DB4BE"/>
			<stop  offset="1" style="stop-color:#10B09A"/>
		</linearGradient>
		<path style="fill:url(#SVGID_00000106109802665455326660000004240185180385284495_);" d="M13.42,118.22
			c0.88,1.21,0.63,2.09-0.09,2.62c-0.72,0.52-1.64,0.49-2.52-0.72c-0.88-1.21-0.66-3.65-0.66-3.65S12.54,117.01,13.42,118.22z"/>
		
			<linearGradient id="SVGID_00000138573558467196700800000003185396023550944657_" gradientUnits="userSpaceOnUse" x1="17.9129" y1="125.1384" x2="21.7693" y2="125.1384">
			<stop  offset="0" style="stop-color:#0DB4BE"/>
			<stop  offset="1" style="stop-color:#10B09A"/>
		</linearGradient>
		<path style="fill:url(#SVGID_00000138573558467196700800000003185396023550944657_);" d="M21.21,124.54
			c0.88,1.21,0.63,2.09-0.09,2.62c-0.72,0.52-1.64,0.49-2.52-0.72c-0.88-1.21-0.66-3.65-0.66-3.65S20.33,123.34,21.21,124.54z"/>
	</g>
	<g>
		
			<linearGradient id="SVGID_00000033349988988291467100000014744327630626868887_" gradientUnits="userSpaceOnUse" x1="29.1045" y1="158.2397" x2="32.9609" y2="158.2397">
			<stop  offset="0" style="stop-color:#0DB4BE"/>
			<stop  offset="1" style="stop-color:#10B09A"/>
		</linearGradient>
		<path style="fill:url(#SVGID_00000033349988988291467100000014744327630626868887_);" d="M32.4,157.65
			c0.88,1.21,0.63,2.09-0.09,2.62c-0.72,0.52-1.64,0.49-2.52-0.72c-0.88-1.21-0.66-3.65-0.66-3.65S31.52,156.44,32.4,157.65z"/>
		
			<linearGradient id="SVGID_00000147210404016865721830000006055467214432777603_" gradientUnits="userSpaceOnUse" x1="28.3727" y1="147.0481" x2="32.2291" y2="147.0481">
			<stop  offset="0" style="stop-color:#0DB4BE"/>
			<stop  offset="1" style="stop-color:#10B09A"/>
		</linearGradient>
		<path style="fill:url(#SVGID_00000147210404016865721830000006055467214432777603_);" d="M31.67,146.45
			c0.88,1.21,0.63,2.09-0.09,2.62c-0.72,0.52-1.64,0.49-2.52-0.72c-0.88-1.21-0.66-3.65-0.66-3.65S30.79,145.25,31.67,146.45z"/>
		
			<linearGradient id="SVGID_00000026165402304100276390000011805487837399249812_" gradientUnits="userSpaceOnUse" x1="36.1638" y1="153.3756" x2="40.0202" y2="153.3756">
			<stop  offset="0" style="stop-color:#0DB4BE"/>
			<stop  offset="1" style="stop-color:#10B09A"/>
		</linearGradient>
		<path style="fill:url(#SVGID_00000026165402304100276390000011805487837399249812_);" d="M39.46,152.78
			c0.88,1.21,0.63,2.09-0.09,2.62c-0.72,0.52-1.64,0.49-2.52-0.72c-0.88-1.21-0.66-3.65-0.66-3.65S38.58,151.57,39.46,152.78z"/>
	</g>
</g>
</svg>
